<?xml version="1.0" encoding="utf-8"?>
<!-- Generator: Adobe Illustrator 15.1.0, SVG Export Plug-In . SVG Version: 6.00 Build 0)  -->
<!DOCTYPE svg PUBLIC "-//W3C//DTD SVG 1.1//EN" "http://www.w3.org/Graphics/SVG/1.1/DTD/svg11.dtd">
<svg version="1.1" id="Ebene_1" xmlns="http://www.w3.org/2000/svg" xmlns:xlink="http://www.w3.org/1999/xlink" x="0px" y="0px"
	 width="100px" height="120.476px" viewBox="-25 -35.238 100 120.476" enable-background="new -25 -35.238 100 120.476"
	 xml:space="preserve">
<path fill="#968437" d="M25.005-35.238L-25,7.621v34.765l50.005,42.852L75,42.386V7.621L25.005-35.238z M42.485,5.253
	c-3.931-3.269-8.291-6.548-14.182-6.548c-4.913,0-10.261,3.605-11.457,8.838c-1.205,5.671,5.018,8.508,9.164,10.148
	c8.4,3.387,17.236,7.198,14.731,18.766C38.67,46.059,28.63,52.608,19.581,52.608c-8.839,0-16.69-4.361-21.93-10.149l5.893-6.545
	c3.599,4.914,10.033,9.823,16.903,9.823c5.455,0,10.798-3.059,12.003-8.944c1.642-7.634-4.037-9.708-9.494-12.002
	C15.32,21.631,6.598,17.701,8.773,7.225C10.63-1.285,19.898-8.158,30.04-8.158c7.319,0,12.56,2.62,17.469,6.766L42.485,5.253z"/>
</svg>
